# xmcd
#
# Track frame offsets: 
#        150
#        16666
#        34349
#        51654
#        70035
#        86904
#        108400
#        123549
#        140584
#        156018
#        173411
#        188864
#        206374
#        223263
#
# Disc length: 3182 seconds
#
# Revision: 0
# Processed by: cddbd v1.5.2PL0 Copyright (c) Steve Scherf et al.
# Submitted via: ExactAudioCopy v1.0b3
#
DISCID=c90c6c0e
DTITLE=Backstreet Boys - In A World Like This
DYEAR=2013
DGENRE=Pop
TTITLE0=In A World Like This
TTITLE1=Permanent Stain
TTITLE2=Breathe
TTITLE3=Madeleine
TTITLE4=Show 'Em (What You're Made Of)
TTITLE5=Make Believe
TTITLE6=Try
TTITLE7=Trust Me
TTITLE8=Love Somebody
TTITLE9=One Phone Call
TTITLE10=Feels Like Home
TTITLE11=Soldier
TTITLE12=In Your Arms
TTITLE13=Take Care
EXTD=
EXTT0=
EXTT1=
EXTT2=
EXTT3=
EXTT4=
EXTT5=
EXTT6=
EXTT7=
EXTT8=
EXTT9=
EXTT10=
EXTT11=
EXTT12=
EXTT13=
PLAYORDER=
